<svg width="43" height="43" viewBox="0 0 43 43" fill="none" xmlns="http://www.w3.org/2000/svg">
<path d="M21.2312 2.1499C17.3124 2.15453 13.5554 3.71332 10.7844 6.48434C8.01338 9.25536 6.45459 13.0123 6.44997 16.9312C6.44527 20.1336 7.49135 23.2492 9.42772 25.7999C9.42772 25.7999 9.83084 26.3307 9.89669 26.4073L21.2312 39.7749L32.5711 26.4006C32.6302 26.3293 33.0347 25.7999 33.0347 25.7999L33.0361 25.7959C34.9715 23.2463 36.0171 20.1321 36.0125 16.9312C36.0078 13.0123 34.4491 9.25536 31.678 6.48434C28.907 3.71332 25.15 2.15453 21.2312 2.1499ZM21.2312 22.3062C20.1681 22.3062 19.1289 21.9909 18.245 21.4003C17.3611 20.8097 16.6722 19.9702 16.2654 18.9881C15.8585 18.0059 15.7521 16.9252 15.9595 15.8825C16.1669 14.8399 16.6788 13.8822 17.4305 13.1305C18.1822 12.3787 19.14 11.8668 20.1826 11.6594C21.2253 11.452 22.306 11.5585 23.2881 11.9653C24.2703 12.3721 25.1098 13.061 25.7004 13.945C26.291 14.8289 26.6062 15.8681 26.6062 16.9312C26.6044 18.3561 26.0376 19.7223 25.03 20.7299C24.0223 21.7375 22.6562 22.3044 21.2312 22.3062Z" fill="#018ABE"/>
</svg>
